<svg xmlns="http://www.w3.org/2000/svg" width="100%" height="100%" viewBox="0 0 744 817">
  <defs>
    <style>
      .cls-1 {
        fill: #fff;
        fill-rule: evenodd;
      }
    </style>
  </defs>
  <path class="cls-1" d="M697.872,319.788h43.046q0.5-59.367,1-118.746v1.963L817,364.931,741.92,528.819h-1V410.074H697.872V528.819L592.76,587.7l21.022,37.293,104.112-57.9v0.981L612.781,712.335,429.585,730l1-1.963L533.7,671.118c-2.447-11.113-13.93-30.54-22.023-37.292l-2,1.963-102.11,56.919L302.449,633.826l-21.023,35.329q1,1.471,2,2.944L385.538,730,251.394,716.261c-16.573-2.648-36.82.247-50.054-5.888L97.229,566.111c16.842,8.145,96.826,59.662,106.114,56.92q9.508-17.172,19.02-34.348L118.251,528.819V410.074H75.205q-0.5,59.367-1,118.745v-1.962L-0.876,364.931,74.2,201.042h1V319.788h43.046V201.042l105.113-59.863-21.023-36.311L97.229,163.75,203.343,17.526,386.539-.139q-0.5.981-1,1.963L282.427,58.744,303.45,96.036,408.562,37.153,513.675,96.036,534.7,60.706l-1-1.963L430.586-.139,564.73,13.6c16.577,2.648,36.718-.238,50.053,5.888L718.9,163.75l-105.113-57.9c-5.35,10.249-19.962,26.152-19.02,37.292l103.11,57.9V319.788ZM393.546,575.925V363.949H287.433V429.7h19.02c0.366,16.952,3.349,83.133-5,88.323-6.874,4.142-16.926,1.176-22.024-1.962q-0.5-114.81-1-229.641c0-23.247-6.391-67.781,4-83.416a38.337,38.337,0,0,1,20.022,0c9.171,14.16,4.229,72.034,4,95.193h87.093c0.633-50.694,7.07-112.324-22.023-134.448-48.23-36.676-161.757-25.529-183.2,25.516-14.016,33.369-6.006,110.253-6.006,155.056,0,48.468-8.662,173.91,9.01,202.162,9.206,14.718,25.439,22.751,44.047,28.46,16.544,5.075,43.3,7.058,61.065.981,15.552-5.32,27.14-14.785,39.042-23.553v1.963l13.014,21.59h45.048Zm111.119-431.8-21.022,2.944c-25.759,6.181-47.2,17.514-59.063,37.292-17.192,28.668-9.01,111.413-9.01,156.037,0,56.163-11.428,177.073,13.014,209.032,11.97,15.652,31.059,22.283,54.058,27.478,15.185,3.431,39.982,7.073,60.064,3.926,36.256-5.681,67.427-15.644,83.089-41.218,12.3-20.084,9.011-57.518,9.01-89.3V271.7c0-32.419,2.473-67.95-10.011-88.324C603.9,149.279,561.388,143.668,504.665,144.123Zm14.015,58.882c7.3-.377,13.426-0.186,17.019,2.944,10.152,7.23,5,45.576,5,61.826v184.5c0,19.539,6.009,61.206-8.009,67.714-6.155,1.808-13.77.44-19.02-.981-9.282-14.007-5-48.6-5-70.659V276.607C508.669,251.184,502.894,213.786,518.68,203.005Z"/>
</svg>
